<?xml version="1.0" encoding="iso-8859-1"?>
<!-- Generator: Adobe Illustrator 21.0.0, SVG Export Plug-In . SVG Version: 6.00 Build 0)  -->
<svg xmlns="http://www.w3.org/2000/svg" xmlns:xlink="http://www.w3.org/1999/xlink" version="1.1" id="Capa_1" x="0px" y="0px" viewBox="0 0 1105.973 1105.973" style="enable-background:new 0 0 1105.973 1105.973;" xml:space="preserve" width="512" height="512">
<g>
	<g id="Digital_camera-Display-Screen-photo-3">
		
			<linearGradient id="SVGID_1_" gradientUnits="userSpaceOnUse" x1="552.9863" y1="1066.1207" x2="552.9863" y2="-87.98" gradientTransform="matrix(1 0 0 -1 0 1087.1343)">
			<stop offset="0" style="stop-color:#FFF33B"/>
			<stop offset="0.014" style="stop-color:#FEE72E"/>
			<stop offset="0.042" style="stop-color:#FED51B"/>
			<stop offset="0.07" style="stop-color:#FDCA10"/>
			<stop offset="0.1" style="stop-color:#FDC70C"/>
			<stop offset="0.4" style="stop-color:#F3903F"/>
			<stop offset="0.8" style="stop-color:#ED683C"/>
			<stop offset="1" style="stop-color:#E93E3A"/>
		</linearGradient>
		<path style="fill:url(#SVGID_1_);" d="M1050.674,202.762h-18.433v-18.433c0-30.541-24.758-55.299-55.299-55.299h-73.732    c-30.541,0-55.299,24.758-55.299,55.299v18.433H55.299C24.758,202.762,0,227.52,0,258.06v663.583    c0,30.541,24.758,55.299,55.299,55.299h995.375c30.541,0,55.299-24.758,55.299-55.299V258.06    C1105.973,227.52,1081.214,202.762,1050.674,202.762z M884.778,184.329c0-10.18,8.253-18.433,18.433-18.433h73.732    c10.18,0,18.433,8.253,18.433,18.433v18.433H884.778V184.329z M1069.107,921.644c0,10.18-8.253,18.433-18.433,18.433H55.299    c-10.18,0-18.433-8.253-18.433-18.433V258.06c0-10.18,8.253-18.433,18.433-18.433h995.375c10.18,0,18.433,8.253,18.433,18.433    V921.644z"/>
		
			<linearGradient id="SVGID_2_" gradientUnits="userSpaceOnUse" x1="442.389" y1="1060.7753" x2="442.389" y2="-88.2749" gradientTransform="matrix(1 0 0 -1 0 1087.1343)">
			<stop offset="0" style="stop-color:#FFF33B"/>
			<stop offset="0.014" style="stop-color:#FEE72E"/>
			<stop offset="0.042" style="stop-color:#FED51B"/>
			<stop offset="0.07" style="stop-color:#FDCA10"/>
			<stop offset="0.1" style="stop-color:#FDC70C"/>
			<stop offset="0.4" style="stop-color:#F3903F"/>
			<stop offset="0.8" style="stop-color:#ED683C"/>
			<stop offset="1" style="stop-color:#E93E3A"/>
		</linearGradient>
		<path style="fill:url(#SVGID_2_);" d="M755.748,276.493H129.03c-30.541,0-55.299,24.758-55.299,55.299v516.12    c0,30.541,24.758,55.299,55.299,55.299h626.718c30.541,0,55.299-24.758,55.299-55.299v-516.12    C811.047,301.251,786.288,276.493,755.748,276.493z M774.181,847.912c0,10.18-8.253,18.433-18.433,18.433H129.03    c-10.18,0-18.433-8.253-18.433-18.433v-516.12c0-10.18,8.253-18.433,18.433-18.433h626.718c10.18,0,18.433,8.253,18.433,18.433    V847.912z"/>
		
			<linearGradient id="SVGID_3_" gradientUnits="userSpaceOnUse" x1="940.0767" y1="1066.3972" x2="940.0767" y2="-88.7358" gradientTransform="matrix(1 0 0 -1 0 1087.1343)">
			<stop offset="0" style="stop-color:#FFF33B"/>
			<stop offset="0.014" style="stop-color:#FEE72E"/>
			<stop offset="0.042" style="stop-color:#FED51B"/>
			<stop offset="0.07" style="stop-color:#FDCA10"/>
			<stop offset="0.1" style="stop-color:#FDC70C"/>
			<stop offset="0.4" style="stop-color:#F3903F"/>
			<stop offset="0.8" style="stop-color:#ED683C"/>
			<stop offset="1" style="stop-color:#E93E3A"/>
		</linearGradient>
		<path style="fill:url(#SVGID_3_);" d="M940.077,663.584c-61.081,0-110.597,49.516-110.597,110.597s49.516,110.597,110.597,110.597    s110.597-49.516,110.597-110.597C1050.613,713.125,1001.133,663.644,940.077,663.584z M940.077,847.912    c-40.721,0-73.732-33.011-73.732-73.732s33.011-73.732,73.732-73.732s73.732,33.011,73.732,73.732    S980.797,847.912,940.077,847.912z"/>
		
			<linearGradient id="SVGID_4_" gradientUnits="userSpaceOnUse" x1="940.0767" y1="1066.4156" x2="940.0767" y2="-88.7358" gradientTransform="matrix(1 0 0 -1 0 1087.1343)">
			<stop offset="0" style="stop-color:#FFF33B"/>
			<stop offset="0.014" style="stop-color:#FEE72E"/>
			<stop offset="0.042" style="stop-color:#FED51B"/>
			<stop offset="0.07" style="stop-color:#FDCA10"/>
			<stop offset="0.1" style="stop-color:#FDC70C"/>
			<stop offset="0.4" style="stop-color:#F3903F"/>
			<stop offset="0.8" style="stop-color:#ED683C"/>
			<stop offset="1" style="stop-color:#E93E3A"/>
		</linearGradient>
		<path style="fill:url(#SVGID_4_);" d="M940.077,294.926c-61.081,0-110.597,49.516-110.597,110.597s49.516,110.597,110.597,110.597    s110.597-49.516,110.597-110.597C1050.613,344.467,1001.133,294.987,940.077,294.926z M940.077,479.255    c-40.721,0-73.732-33.011-73.732-73.732s33.011-73.731,73.732-73.731s73.732,33.011,73.732,73.731    S980.797,479.255,940.077,479.255z"/>
		
			<linearGradient id="SVGID_5_" gradientUnits="userSpaceOnUse" x1="442.389" y1="1063.0609" x2="442.389" y2="-90.0629" gradientTransform="matrix(1 0 0 -1 0 1087.1343)">
			<stop offset="0" style="stop-color:#FFF33B"/>
			<stop offset="0.014" style="stop-color:#FEE72E"/>
			<stop offset="0.042" style="stop-color:#FED51B"/>
			<stop offset="0.07" style="stop-color:#FDCA10"/>
			<stop offset="0.1" style="stop-color:#FDC70C"/>
			<stop offset="0.4" style="stop-color:#F3903F"/>
			<stop offset="0.8" style="stop-color:#ED683C"/>
			<stop offset="1" style="stop-color:#E93E3A"/>
		</linearGradient>
		<path style="fill:url(#SVGID_5_);" d="M508.434,488.471c4.977-8.368,7.63-17.913,7.687-27.649v-36.866    c0-30.541-24.758-55.299-55.299-55.299h-36.866c-30.541,0-55.299,24.758-55.299,55.299v36.866    c0.056,9.736,2.71,19.281,7.686,27.649c-49.089,19.528-81.337,66.983-81.418,119.814v184.329c0,10.18,8.253,18.433,18.433,18.433    h258.06c10.18,0,18.433-8.253,18.433-18.433V608.285C589.771,555.454,557.523,507.999,508.434,488.471z M405.523,460.822v-36.866    c0-10.18,8.253-18.433,18.433-18.433h36.866c10.18,0,18.433,8.253,18.433,18.433v36.866c0,10.18-8.253,18.433-18.433,18.433    h-36.866C413.776,479.255,405.523,471.002,405.523,460.822z M552.986,774.181H331.792V608.285    c0.061-50.876,41.289-92.103,92.164-92.164h36.866c50.876,0.061,92.103,41.289,92.164,92.164V774.181z"/>
	</g>
</g>















</svg>
