<svg height="447pt" viewBox="0 -29 447.00118 447" width="447pt" xmlns="http://www.w3.org/2000/svg"><path d="m399.5 171.289062h-14.652344l-128.835937-120.539062c2.300781-4.761719 3.496093-9.984375 3.488281-15.273438-.011719-19.605468-15.917969-35.4882808-35.523438-35.476562-19.605468.0117188-35.488281 15.917969-35.476562 35.523438-.007812 5.273437 1.1875 10.476562 3.488281 15.21875l-128.835937 120.546874h-14.652344c-26.46875 0-48.5 21.785157-48.5 48.25v121c0 26.46875 22.03125 47.75 48.5 47.75h351c12.648438.023438 24.78125-5.007812 33.703125-13.976562 8.917969-8.964844 13.886719-21.125 13.796875-33.773438v-121c0-26.464843-21.03125-48.25-47.5-48.25zm-175.5-155.25c10.769531 0 19.5 8.730469 19.5 19.5 0 10.769532-8.730469 19.5-19.5 19.5s-19.5-8.730468-19.5-19.5c.011719-10.765624 8.734375-19.488281 19.5-19.5zm-21.96875 47.230469c12.839844 10.289063 31.109375 10.277344 43.9375-.03125l115.472656 108.050781h-274.882812zm228.96875 277.019531c0 17.671876-14.328125 32-32 32h-351c-17.671875 0-32-14.328124-32-32v-121c0-17.671874 14.328125-32 32-32h351c17.671875 0 32 14.328126 32 32zm0 0"/><path d="m119.699219 261.210938c0-3.097657 2.902343-6 10-6 8.199219 0 10.101562 3.800781 13.699219 3.800781 4.402343 0 6.203124-5.5 6.203124-8.199219 0-7.800781-14.601562-8.800781-19.902343-8.800781-12.5 0-25.597657 5.699219-25.597657 20.699219 0 23.402343 31.699219 21.300781 31.699219 33.402343 0 4.796875-5.101562 6.597657-9.699219 6.597657-9.300781 0-12.300781-7.398438-17-7.398438-3.800781 0-6.800781 5-6.800781 8.398438 0 6.601562 11 13 24.097657 13 14.5 0 25-7.800782 25-22.199219 0-25.199219-31.699219-23.300781-31.699219-33.300781zm0 0"/><path d="m192.449219 242.609375c-13.800781 0-24.449219 6.398437-24.449219 23.601563v26.5c0 17.199218 10.648438 23.597656 24.449219 23.597656s24.550781-6.398438 24.550781-23.597656v-26.5c0-17.199219-10.75-23.601563-24.550781-23.601563zm9.550781 50.101563c0 6.898437-3.449219 10-9.050781 10-5.601563 0-8.949219-3.101563-8.949219-10v-26.5c0-6.902344 3.351562-10 8.949219-10 5.601562 0 9.050781 3.097656 9.050781 10zm0 0"/><path d="m275.800781 302.289062h-22.800781v-54.976562c0-3.300781-4.101562-4.703125-8-4.703125s-8 1.402344-8 4.703125v63.597656c0 3.199219 3.800781 4.375 7.199219 4.375h31.601562c3 0 4.5-3.097656 4.5-6.5 0-3.398437-1.5-6.496094-4.5-6.496094zm0 0"/><path d="m321.101562 242.289062h-17.703124c-4.097657 0-6.398438 2.523438-6.398438 5.023438v63.699219c0 2.5 2.300781 4.273437 6.398438 4.273437h17.703124c13.796876 0 24.898438-5.976562 24.898438-23.175781v-25.902344c0-17.195312-11.101562-23.917969-24.898438-23.917969zm8.898438 49.824219c0 6.800781-3.300781 10.175781-8.898438 10.175781h-9.101562v-46h9.101562c5.597657 0 8.898438 3.121094 8.898438 9.921876zm0 0"/></svg>